Coordinates
version=1
nRows=60
nColumns=12
inDegrees=yes

Units are S.I. units (second, meters, Newtons, ...)
Angles are in degrees

endheader
time	SC_y	SC_z	SC_x	AC_y	AC_z	AC_x	GH_y	GH_z	GH_yy	EL_x	PS_y
       0.0              -32.67           25.5          47.17          33.93          6.501          -5.48          61.17           80.9          78.01          49.49          44.66
   0.04209              -32.67           25.5          47.17          33.94            6.5         -5.477          61.17           80.9           78.0          49.49          44.66
   0.08418              -32.67           25.5          47.17          33.94          6.499         -5.474          61.16           80.9          77.99           49.5          44.67
    0.1263              -32.67           25.5          47.16          33.94          6.498         -5.471          61.15          80.89          77.98           49.5          44.67
    0.1684              -32.67           25.5          47.16          33.95          6.497         -5.467          61.14          80.89          77.96          49.51          44.67
    0.2104              -32.66           25.5          47.16          33.95          6.496         -5.464          61.14          80.89          77.95          49.52          44.67
    0.2525              -32.66          25.49          47.16          33.95          6.494          -5.46          61.13          80.89          77.94          49.53          44.67
    0.2946              -32.66          25.49          47.16          33.96          6.493         -5.456          61.12          80.88          77.92          49.53          44.67
    0.3367              -32.66          25.49          47.15          33.96          6.492         -5.451          61.11          80.88          77.91          49.54          44.68
    0.3788              -32.65          25.49          47.15          33.97           6.49         -5.446          61.09          80.88          77.89          49.55          44.68
    0.4209              -32.65          25.48          47.15          33.97          6.489         -5.441          61.08          80.87          77.88          49.56          44.68
     0.463              -32.65          25.48          47.14          33.98          6.487         -5.436          61.07          80.87          77.86          49.57          44.68
    0.5051              -32.64          25.48          47.14          33.98          6.485          -5.43          61.05          80.87          77.84          49.58          44.69
    0.5471              -32.64          25.47          47.14          33.99          6.483         -5.423          61.04          80.86          77.82          49.59          44.69
    0.5892              -32.64          25.47          47.13           34.0          6.481         -5.416          61.02          80.86          77.79          49.61          44.69
    0.6313              -32.63          25.47          47.13          34.01          6.478         -5.409           61.0          80.85          77.77          49.62          44.69
    0.6734              -32.63          25.46          47.12          34.01          6.476         -5.401          60.98          80.85          77.74          49.64           44.7
    0.7155              -32.62          25.46          47.12          34.02          6.473         -5.392          60.96          80.84          77.71          49.65           44.7
    0.7576              -32.61          25.45          47.11          34.03           6.47         -5.382          60.94          80.83          77.68          49.67          44.71
    0.7997              -32.61          25.45          47.11          34.04          6.467         -5.371          60.91          80.83          77.64          49.69          44.71
    0.8418               -32.6          25.44           47.1          34.06          6.463         -5.359          60.89          80.82           77.6          49.71          44.72
    0.8839              -32.59          25.43          47.09          34.07          6.459         -5.346          60.85          80.81          77.56          49.74          44.72
    0.9259              -32.58          25.43          47.08          34.08          6.454         -5.332          60.82           80.8          77.51          49.76          44.73
     0.968              -32.58          25.42          47.07           34.1          6.449         -5.316          60.78          80.79          77.46          49.79          44.74
      1.01              -32.56          25.41          47.06          34.12          6.444         -5.298          60.74          80.78           77.4          49.82          44.74
     1.052              -32.55           25.4          47.05          34.14          6.438         -5.279          60.69          80.76          77.33          49.86          44.75
     1.094              -32.54          25.39          47.04          34.16          6.431         -5.257          60.64          80.75          77.26           49.9          44.76
     1.136              -32.52          25.37          47.02          34.19          6.423         -5.232          60.58          80.73          77.17          49.95          44.77
     1.178              -32.51          25.36          47.01          34.22          6.414         -5.204          60.51          80.71          77.08           50.0          44.78
     1.221              -32.49          25.34          46.99          34.25          6.404         -5.172          60.44          80.69          76.97          50.06           44.8
     1.263              -32.47          25.32          46.97          34.29          6.393         -5.136          60.35          80.67          76.85          50.13          44.81
     1.305              -32.44           25.3          46.94          34.33           6.38         -5.094          60.25          80.64          76.71           50.2          44.83
     1.347              -32.41          25.27          46.91          34.38          6.365         -5.046          60.14          80.61          76.55          50.29          44.85
     1.389              -32.38          25.24          46.88          34.44          6.348          -4.99           60.0          80.57          76.36           50.4          44.88
     1.431              -32.34          25.21          46.84           34.5          6.327         -4.925          59.85          80.53          76.14          50.52          44.91
     1.473              -32.29          25.17          46.79          34.58          6.303         -4.848          59.66          80.47          75.88          50.66          44.94
     1.515              -32.24          25.12          46.74          34.68          6.274         -4.756          59.44          80.41          75.58          50.83          44.98
     1.557              -32.17          25.06          46.67          34.79           6.24         -4.646          59.18          80.34          75.21          51.03          45.03
     1.599              -32.09          24.99          46.59          34.93          6.198         -4.514          58.86          80.25          74.76          51.28          45.09
     1.641              -31.99           24.9           46.5          35.09          6.148         -4.351          58.47          80.14          74.22          51.58          45.16
     1.684              -31.87           24.8          46.38           35.3          6.085         -4.151           58.0           80.0          73.54          51.95          45.25
     1.726              -31.72          24.67          46.23          35.56          6.007         -3.901           57.4          79.84          72.71          52.41          45.35
     1.768              -31.53           24.5          46.04          35.88          5.908         -3.587          56.65          79.62          71.65           53.0          45.49
      1.81              -31.29          24.29           45.8          36.29          5.783         -3.187          55.69          79.35          70.31          53.74          45.67
     1.852              -30.98          24.01           45.5          36.82          5.623         -2.675          54.46          79.01          68.59          54.69          45.89
     1.894              -30.59          23.66          45.11           37.5          5.417         -2.018          52.89          78.57          66.38           55.9          46.18
     1.936              -30.08          23.22          44.61          38.36          5.155         -1.178          50.89           78.0          63.57          57.46          46.55
     1.978              -29.45          22.66          43.98          39.45          4.825        -0.1233          48.36          77.29          60.03          59.41          47.01
      2.02              -28.67          21.97          43.22          40.77          4.422          1.163          45.29          76.42          55.71           61.8          47.57
     2.062              -27.78          21.18          42.33          42.31          3.956          2.653          41.72          75.42          50.71          64.56          48.22
     2.104               -26.8          20.33          41.37          43.97          3.451          4.267          37.86          74.33          45.29          67.55          48.93
     2.146              -25.83          19.47          40.41          45.63          2.946          5.881           34.0          73.25          39.87          70.54          49.64
     2.189              -24.94          18.68          39.52          47.17          2.479          7.371          30.44          72.24          34.87           73.3          50.29
     2.231              -24.16          17.99          38.75          48.49          2.077          8.657          27.36          71.37          30.55          75.68          50.85
     2.273              -23.53          17.43          38.13          49.58          1.747          9.712          24.84          70.66          27.01          77.64          51.31
     2.315              -23.02          16.99          37.63          50.44          1.484          10.55          22.83           70.1           24.2          79.19          51.68
     2.357              -22.62          16.64          37.24          51.12          1.279          11.21          21.26          69.66          21.99          80.41          51.97
     2.399              -22.32          16.37          36.93          51.65          1.118          11.72          20.03          69.31          20.27          81.36          52.19
     2.441              -22.08          16.15          36.69          52.06         0.9932          12.12          19.08          69.04          18.93           82.1          52.37
     2.483              -21.89          15.99          36.51          52.38         0.8947          12.43          18.33          68.83          17.87          82.68          52.51
